<?xml version="1.0" encoding="UTF-8" standalone="no"?>
<!-- Created with Inkscape (http://www.inkscape.org/) -->

<svg
   width="97.53611mm"
   height="99.496254mm"
   viewBox="0 0 97.53611 99.496254"
   version="1.1"
   id="svg1"
   xml:space="preserve"
   xmlns:inkscape="http://www.inkscape.org/namespaces/inkscape"
   xmlns:sodipodi="http://sodipodi.sourceforge.net/DTD/sodipodi-0.dtd"
   xmlns="http://www.w3.org/2000/svg"
   xmlns:svg="http://www.w3.org/2000/svg"><sodipodi:namedview
     id="namedview1"
     pagecolor="#ffffff"
     bordercolor="#000000"
     borderopacity="0.25"
     inkscape:showpageshadow="2"
     inkscape:pageopacity="0.0"
     inkscape:pagecheckerboard="0"
     inkscape:deskcolor="#d1d1d1"
     inkscape:document-units="mm" /><defs
     id="defs1" /><g
     inkscape:label="Livello 1"
     inkscape:groupmode="layer"
     id="layer1"
     transform="translate(-56.231943,-98.751866)"><g
       id="g5"
       transform="translate(10.238204,4.9791481)"
       inkscape:export-filename="logo.svg"
       inkscape:export-xdpi="97.692299"
       inkscape:export-ydpi="97.692299"><path
         style="fill:#fcbf49;fill-opacity:1"
         d="m 97.588581,193.16499 c -0.69358,-0.092 -1.60676,-0.24602 -2.02928,-0.34225 -0.42253,-0.0962 -1.04602,-0.17497 -1.38554,-0.17497 -0.33952,0 -0.66741,-0.0811 -0.72864,-0.18015 -0.0612,-0.0991 -0.26896,-0.18015 -0.4616,-0.18015 -0.43443,0 -3.5923,-0.99623 -4.625693,-1.4593 -0.420022,-0.18821 -0.843644,-0.3422 -0.941382,-0.3422 -0.30439,0 -4.405634,-2.2023 -5.681113,-3.05066 -0.396331,-0.26362 -0.842203,-0.52846 -0.990827,-0.58854 -0.366445,-0.14813 -3.307641,-2.36546 -4.61176,-3.47675 -1.52743,-1.30158 -3.60514,-3.38578 -5.028488,-5.04421 -0.680302,-0.79267 -1.302652,-1.46823 -1.382999,-1.50126 -0.08035,-0.033 -0.146085,-0.14089 -0.146085,-0.23969 0,-0.0988 -0.271243,-0.59873 -0.602761,-1.11093 -0.975141,-1.50662 -1.293019,-2.07983 -2.364666,-4.26407 -0.559046,-1.13945 -1.092889,-2.2125 -1.186317,-2.38455 -0.09343,-0.17205 -0.169868,-0.42625 -0.169868,-0.5649 0,-0.13864 -0.121102,-0.48428 -0.269116,-0.76808 -0.148014,-0.2838 -0.269615,-0.65787 -0.270226,-0.83127 -6.1e-4,-0.17339 -0.08218,-0.31526 -0.18126,-0.31526 -0.09908,0 -0.180151,-0.26753 -0.180151,-0.5945 0,-0.32697 -0.06604,-0.67151 -0.146756,-0.76564 -0.261993,-0.30553 -0.75978,-2.65099 -0.934823,-4.40468 -0.09395,-0.94129 -0.244883,-2.31944 -0.335398,-3.06256 -0.09051,-0.74312 -0.139857,-1.37804 -0.10965,-1.41094 0.03021,-0.0329 0.568457,0.0315 1.196113,0.1432 1.664961,0.29618 1.857916,0.3225 3.933524,0.53651 1.04037,0.10726 2.589844,0.27514 3.443278,0.37306 0.853433,0.0979 1.86678,0.17913 2.251881,0.18048 1.445239,0.005 1.637354,0.18965 1.778805,1.70897 0.0673,0.7229 0.540186,2.42964 0.835378,3.01508 0.08675,0.17205 0.157732,0.39725 0.157732,0.50045 0,0.10319 0.405339,1.03431 0.900753,2.06914 0.495414,1.03483 0.900752,1.92773 0.900752,1.98422 0,0.0565 0.07877,0.20063 0.175038,0.3203 0.09627,0.11967 0.708349,1.01327 1.360175,1.98577 1.555176,2.32026 2.821399,3.72941 5.12909,5.70806 2.078684,1.7823 5.23062,3.58301 7.74774,4.4263 0.54495,0.18258 1.07189,0.38713 1.17098,0.45457 0.0991,0.0674 0.54183,0.18233 0.9839,0.25533 0.44206,0.073 0.92847,0.19784 1.0809,0.27745 0.26117,0.13639 1.07715,0.28493 4.06031,0.73916 1.634739,0.24891 6.633399,0.0673 8.286929,-0.30112 0.69358,-0.15453 1.38265,-0.30347 1.53128,-0.331 0.99136,-0.18357 2.7492,-0.78756 4.05338,-1.39272 1.05549,-0.48977 3.40083,-1.78772 3.50945,-1.9422 0.0515,-0.0732 0.38485,-0.30993 0.74087,-0.52611 1.54848,-0.94028 3.97078,-3.1267 5.63081,-5.08252 1.67219,-1.97014 3.54009,-4.87221 3.54009,-5.50007 0,-0.14561 0.0613,-0.26475 0.13628,-0.26475 0.16159,0 0.58432,-1.28714 0.58432,-1.77913 0,-0.40877 -0.21061,-0.46841 -2.61218,-0.73973 -0.99083,-0.11194 -2.20685,-0.27898 -2.70226,-0.37121 -0.49542,-0.0922 -2.56264,-0.3331 -4.59384,-0.53529 -2.0312,-0.20219 -4.34163,-0.44404 -5.13429,-0.53745 -0.79266,-0.0934 -1.96814,-0.21695 -2.61218,-0.27454 -0.64404,-0.0576 -2.54913,-0.26554 -4.23354,-0.46211 -1.68441,-0.19657 -3.87323,-0.43393 -4.86406,-0.52748 -2.510709,-0.23704 -6.524199,-0.66646 -7.386169,-0.79027 -1.3357,-0.19185 -5.38618,-0.65406 -8.016701,-0.91481 -2.947598,-0.29217 -5.436085,-0.63979 -8.467074,-1.18277 -3.518388,-0.63029 -3.758416,-0.71213 -4.451465,-1.5179 -0.827355,-0.96192 -2.008872,-3.20792 -2.149206,-4.08552 -0.06172,-0.386 -0.182644,-0.74533 -0.268712,-0.79853 -0.08607,-0.0532 -0.156487,-0.31892 -0.156487,-0.5905 0,-0.27158 -0.07192,-0.5708 -0.159831,-0.66493 -0.347707,-0.37232 -0.757059,-2.69541 -0.861248,-4.88764 -0.171226,-3.60277 0.335048,-6.96041 1.502669,-9.96577 0.882465,-2.27139 2.935281,-6.2249 3.788498,-7.29626 0.07898,-0.0992 0.383294,-0.50451 0.676254,-0.90075 2.081165,-2.81488 4.911064,-5.60984 7.664194,-7.56958 0.544955,-0.38791 1.031361,-0.75143 1.080903,-0.80782 0.190756,-0.21712 3.200755,-2.01413 4.864063,-2.90391 1.814613,-0.97072 4.992133,-2.12993 7.630903,-2.78388 3.45497,-0.85622 3.691579,-0.88119 8.312419,-0.87745 2.66065,0.002 4.94611,0.0892 5.58466,0.21271 0.5945,0.11499 1.48624,0.28757 1.98166,0.38352 0.49541,0.096 1.67089,0.38207 2.61218,0.63583 4.35702,1.17457 10.444,4.09259 13.06091,6.26124 0.19817,0.16422 0.96831,0.78701 1.71143,1.38398 3.28058,2.63539 6.96253,6.84122 8.65169,9.88269 0.26475,0.47671 0.88735,1.59635 1.38354,2.4881 0.49619,0.89174 0.96545,1.82402 1.04279,2.07173 0.0773,0.24771 0.37705,0.96851 0.66602,1.60178 0.28896,0.63327 0.57301,1.40342 0.63122,1.71143 0.0582,0.30802 0.16089,0.64109 0.22818,0.74018 0.25769,0.37942 0.95071,3.3678 1.15867,4.99632 0.0977,0.76542 -0.0385,0.8623 -2.22943,1.58588 -1.5195,0.50182 -6.50856,2.37098 -7.63926,2.86206 -1.25037,0.54305 -1.45962,0.42347 -1.46952,-0.83983 -0.004,-0.57096 -0.0974,-1.40292 -0.20643,-1.84879 -0.31586,-1.29132 -1.48241,-4.41853 -2.01606,-5.40451 -0.0804,-0.14863 -0.43137,-0.79717 -0.77985,-1.44121 -1.06242,-1.96352 -1.36174,-2.46797 -1.92905,-3.25112 -1.46253,-2.01897 -3.86271,-4.52526 -5.87226,-6.13187 -2.05662,-1.64424 -3.00817,-2.32679 -3.2438,-2.32679 -0.12225,0 -0.32948,-0.12919 -0.46052,-0.28709 -0.29474,-0.35513 -3.17997,-1.73196 -4.3997,-2.09952 -1.8002,-0.54249 -2.36899,-0.66791 -3.85684,-0.85042 -3.79516,-0.46555 -8.16596,-0.016 -11.455949,1.1782 -1.17217,0.42548 -4.45577,1.96628 -4.86407,2.28241 -0.0991,0.0767 -0.81702,0.59658 -1.59542,1.15526 -1.39617,1.00206 -1.85206,1.41947 -3.633412,3.32671 -1.491626,1.59703 -2.126091,2.49034 -3.503265,4.9325 -0.167623,0.29725 -0.44861,0.94579 -0.624416,1.4412 -0.175805,0.49542 -0.391503,1.06289 -0.479328,1.26106 -0.406441,0.91708 -0.664878,2.34351 -0.459558,2.5365 0.233577,0.21956 3.07411,0.59228 11.646529,1.52823 0.94129,0.10277 2.60318,0.30533 3.69309,0.45013 1.08991,0.1448 3.197669,0.38401 4.683909,0.53157 3.82166,0.37943 10.46202,1.15291 11.52963,1.34299 1.40644,0.2504 3.91804,0.54671 4.60319,0.54307 0.67572,-0.004 5.01351,0.6272 6.25347,0.90938 0.42252,0.0961 1.01387,0.17483 1.3141,0.17483 0.63677,0 2.81946,0.48845 3.27471,0.73283 0.17205,0.0924 0.46549,0.16792 0.6521,0.16792 0.49121,0 2.95622,1.32717 4.55922,2.4547 1.49051,1.0484 3.58857,3.18564 3.9674,4.04149 0.12896,0.29132 0.29574,0.52968 0.37064,0.52968 0.0749,0 0.13617,0.10914 0.13617,0.24254 0,0.13341 0.13051,0.50417 0.29002,0.82392 0.96902,1.94244 1.3018,5.26997 0.86624,8.66166 -0.11417,0.88897 -0.76589,2.95559 -1.33426,4.23093 -0.19935,0.44731 -0.53203,1.19836 -0.73929,1.669 -0.70946,1.611 -2.55858,4.43113 -4.18884,6.38848 -1.71597,2.06026 -2.87866,3.24262 -4.9823,5.06661 -1.04037,0.90206 -2.04994,1.78552 -2.24348,1.96324 -0.71943,0.66059 -5.46547,3.74258 -6.94419,4.50942 -1.65083,0.8561 -3.70516,1.73618 -5.13927,2.20168 -0.49268,0.15992 -1.05791,0.36164 -1.25608,0.44827 -0.19816,0.0866 -0.56297,0.19686 -0.81067,0.24496 -0.24771,0.0481 -1.26106,0.26636 -2.25189,0.48503 -0.99082,0.21867 -2.49058,0.4694 -3.33278,0.55719 -2.31181,0.24098 -8.390079,0.32474 -9.818199,0.13529 z"
         id="path3"
         sodipodi:nodetypes="ssscssssssssssssssssssssscsscssssssssscsssscsssssssssssssssssssssssssssssscscssssscssscsscccsssssssssssssssssssccscsssssssssssssssssss" /><path
         style="fill:#f77f00;fill-opacity:1"
         d="m 91.9814,187.19605 c -0.69358,-0.092 -1.60676,-0.24602 -2.02928,-0.34225 -0.42253,-0.0962 -1.04602,-0.17497 -1.38554,-0.17497 -0.33952,0 -0.66741,-0.0811 -0.72864,-0.18015 -0.0612,-0.0991 -0.26896,-0.18015 -0.4616,-0.18015 -0.43443,0 -3.5923,-0.99623 -4.625693,-1.4593 -0.420022,-0.18821 -0.843644,-0.3422 -0.941382,-0.3422 -0.30439,0 -4.405634,-2.2023 -5.681113,-3.05066 -0.396331,-0.26362 -0.842203,-0.52846 -0.990827,-0.58854 -0.366445,-0.14813 -3.307641,-2.36546 -4.61176,-3.47675 -1.52743,-1.30158 -3.60514,-3.38578 -5.028488,-5.04421 -0.680302,-0.79267 -1.302652,-1.46823 -1.382999,-1.50126 -0.08035,-0.033 -0.146085,-0.14089 -0.146085,-0.23969 0,-0.0988 -0.271243,-0.59873 -0.602761,-1.11093 -0.975141,-1.50662 -1.293019,-2.07983 -2.364666,-4.26407 -0.559046,-1.13945 -1.092889,-2.2125 -1.186317,-2.38455 -0.09343,-0.17205 -0.169868,-0.42625 -0.169868,-0.5649 0,-0.13864 -0.121102,-0.48428 -0.269116,-0.76808 -0.148014,-0.2838 -0.269615,-0.65787 -0.270226,-0.83127 -6.1e-4,-0.17339 -0.08218,-0.31526 -0.18126,-0.31526 -0.09908,0 -0.180151,-0.26753 -0.180151,-0.5945 0,-0.32697 -0.06604,-0.67151 -0.146756,-0.76564 -0.261993,-0.30553 -0.75978,-2.65099 -0.934823,-4.40468 -0.09395,-0.94129 -0.244883,-2.31944 -0.335398,-3.06256 -0.09051,-0.74312 -0.139857,-1.37804 -0.10965,-1.41094 0.03021,-0.0329 0.568457,0.0315 1.196113,0.1432 1.664961,0.29618 1.857916,0.3225 3.933524,0.53651 1.04037,0.10726 2.589844,0.27514 3.443278,0.37306 0.853433,0.0979 1.86678,0.17913 2.251881,0.18048 1.445239,0.005 1.637354,0.18965 1.778805,1.70897 0.0673,0.7229 0.540186,2.42964 0.835378,3.01508 0.08675,0.17205 0.157732,0.39725 0.157732,0.50045 0,0.10319 0.405339,1.03431 0.900753,2.06914 0.495414,1.03483 0.900752,1.92773 0.900752,1.98422 0,0.0565 0.07877,0.20063 0.175038,0.3203 0.09627,0.11967 0.708349,1.01327 1.360175,1.98577 1.555176,2.32026 2.821399,3.72941 5.12909,5.70806 2.078684,1.7823 5.23062,3.58301 7.74774,4.4263 0.54495,0.18258 1.07189,0.38713 1.17098,0.45457 0.0991,0.0674 0.54183,0.18233 0.9839,0.25533 0.44206,0.073 0.92847,0.19784 1.0809,0.27745 0.26117,0.13639 1.07715,0.28493 4.06031,0.73916 1.63474,0.24891 6.63339,0.0673 8.28692,-0.30112 0.69358,-0.15453 1.38265,-0.30347 1.53128,-0.331 0.99136,-0.18357 2.7492,-0.78756 4.05338,-1.39272 1.05549,-0.48977 3.40083,-1.78772 3.50945,-1.9422 0.0515,-0.0732 0.38485,-0.30993 0.74087,-0.52611 1.54848,-0.94028 3.97078,-3.1267 5.63081,-5.08252 1.67219,-1.97014 3.54009,-4.87221 3.54009,-5.50007 0,-0.14561 0.0613,-0.26475 0.13628,-0.26475 0.16159,0 0.58432,-1.28714 0.58432,-1.77913 0,-0.40877 -0.21061,-0.46841 -2.61218,-0.73973 -0.99083,-0.11194 -2.20685,-0.27898 -2.70226,-0.37121 -0.49542,-0.0922 -2.56264,-0.3331 -4.59384,-0.53529 -2.0312,-0.20219 -4.34163,-0.44404 -5.13429,-0.53745 -0.79266,-0.0934 -1.96814,-0.21695 -2.61218,-0.27454 -0.64404,-0.0576 -2.54913,-0.26554 -4.23354,-0.46211 -1.6844,-0.19657 -3.87322,-0.43393 -4.86405,-0.52748 -2.51071,-0.23704 -6.5242,-0.66646 -7.38617,-0.79027 -1.3357,-0.19185 -5.38618,-0.65406 -8.016701,-0.91481 -2.947598,-0.29217 -5.436085,-0.63979 -8.467074,-1.18277 -3.518388,-0.63029 -3.758416,-0.71213 -4.451465,-1.5179 -0.827355,-0.96192 -2.008872,-3.20792 -2.149206,-4.08552 -0.06172,-0.386 -0.182644,-0.74533 -0.268712,-0.79853 -0.08607,-0.0532 -0.156487,-0.31892 -0.156487,-0.5905 0,-0.27158 -0.07192,-0.5708 -0.159831,-0.66493 -0.347707,-0.37232 -0.757059,-2.69541 -0.861248,-4.88764 -0.171226,-3.60277 0.335048,-6.96041 1.502669,-9.96577 0.882465,-2.27139 2.935281,-6.2249 3.788498,-7.29626 0.07898,-0.0992 0.383294,-0.50451 0.676254,-0.90075 2.081165,-2.81488 4.911064,-5.60984 7.664194,-7.56958 0.544955,-0.38791 1.031361,-0.75143 1.080903,-0.80782 0.190756,-0.21712 3.200755,-2.01413 4.864063,-2.90391 1.814613,-0.97072 4.992133,-2.12993 7.630903,-2.78388 3.45497,-0.85622 3.69158,-0.88119 8.31242,-0.87745 2.66064,0.002 4.9461,0.0892 5.58465,0.21271 0.5945,0.11499 1.48624,0.28757 1.98166,0.38352 0.49541,0.096 1.67089,0.38207 2.61218,0.63583 4.35702,1.17457 10.444,4.09259 13.06091,6.26124 0.19817,0.16422 0.96831,0.78701 1.71143,1.38398 3.28058,2.63539 6.96253,6.84122 8.65169,9.88269 0.26475,0.47671 0.88735,1.59635 1.38354,2.4881 0.49619,0.89174 0.96545,1.82402 1.04279,2.07173 0.0773,0.24771 0.37705,0.96851 0.66602,1.60178 0.28896,0.63327 0.57301,1.40342 0.63122,1.71143 0.0582,0.30802 0.16089,0.64109 0.22818,0.74018 0.25769,0.37942 0.95071,3.3678 1.15867,4.99632 0.0977,0.76542 -0.0385,0.8623 -2.22943,1.58588 -1.5195,0.50182 -6.50856,2.37098 -7.63926,2.86206 -1.25037,0.54305 -1.45962,0.42347 -1.46952,-0.83983 -0.004,-0.57096 -0.0974,-1.40292 -0.20643,-1.84879 -0.31586,-1.29132 -1.48241,-4.41853 -2.01606,-5.40451 -0.0804,-0.14863 -0.43137,-0.79717 -0.77985,-1.44121 -1.06242,-1.96352 -1.36174,-2.46797 -1.92905,-3.25112 -1.46253,-2.01897 -3.86271,-4.52526 -5.87226,-6.13187 -2.05662,-1.64424 -3.00817,-2.32679 -3.2438,-2.32679 -0.12225,0 -0.32948,-0.12919 -0.46052,-0.28709 -0.29474,-0.35513 -3.17997,-1.73196 -4.3997,-2.09952 -1.8002,-0.54249 -2.36899,-0.66791 -3.85684,-0.85042 -3.79516,-0.46555 -8.16595,-0.016 -11.45594,1.1782 -1.17217,0.42548 -4.45577,1.96628 -4.86407,2.28241 -0.0991,0.0767 -0.81702,0.59658 -1.59542,1.15526 -1.39617,1.00206 -1.85206,1.41947 -3.633412,3.32671 -1.491626,1.59703 -2.126091,2.49034 -3.503265,4.9325 -0.167623,0.29725 -0.44861,0.94579 -0.624416,1.4412 -0.175805,0.49542 -0.391503,1.06289 -0.479328,1.26106 -0.406441,0.91708 -0.664878,2.34351 -0.459558,2.5365 0.233577,0.21956 3.07411,0.59228 11.646529,1.52823 0.94129,0.10277 2.60318,0.30533 3.69309,0.45013 1.08991,0.1448 3.19767,0.38401 4.68391,0.53157 3.82165,0.37943 10.46201,1.15291 11.52962,1.34299 1.40644,0.2504 3.91804,0.54671 4.60319,0.54307 0.67572,-0.004 5.01351,0.6272 6.25347,0.90938 0.42252,0.0961 1.01387,0.17483 1.3141,0.17483 0.63677,0 2.81946,0.48845 3.27471,0.73283 0.17205,0.0924 0.46549,0.16792 0.6521,0.16792 0.49121,0 2.95622,1.32717 4.55922,2.4547 1.49051,1.0484 3.58857,3.18564 3.9674,4.04149 0.12896,0.29132 0.29574,0.52968 0.37064,0.52968 0.0749,0 0.13617,0.10914 0.13617,0.24254 0,0.13341 0.13051,0.50417 0.29002,0.82392 0.96902,1.94244 1.3018,5.26997 0.86624,8.66166 -0.11417,0.88897 -0.76589,2.95559 -1.33426,4.23093 -0.19935,0.44731 -0.53203,1.19836 -0.73929,1.669 -0.70946,1.611 -2.55858,4.43113 -4.18884,6.38848 -1.71597,2.06026 -2.87866,3.24262 -4.9823,5.06661 -1.04037,0.90206 -2.04994,1.78552 -2.24348,1.96324 -0.71943,0.66059 -5.46547,3.74258 -6.94419,4.50942 -1.65083,0.8561 -3.70516,1.73618 -5.13927,2.20168 -0.49268,0.15992 -1.05791,0.36164 -1.25608,0.44827 -0.19816,0.0866 -0.56297,0.19686 -0.81067,0.24496 -0.24771,0.0481 -1.26106,0.26636 -2.25189,0.48503 -0.99082,0.21867 -2.49058,0.4694 -3.33278,0.55719 -2.3118,0.24098 -8.39007,0.32474 -9.81819,0.13529 z"
         id="path2"
         sodipodi:nodetypes="ssscssssssssssssssssssssscsscssssssssscsssscsssssssssssssssssssssssssssssscscssssscssscsscccsssssssssssssssssssccscsssssssssssssssssss" /><path
         style="fill:#d62828;fill-opacity:1"
         d="m 86.374209,181.2271 c -0.69358,-0.092 -1.60676,-0.24602 -2.02928,-0.34225 -0.42253,-0.0962 -1.04602,-0.17497 -1.38554,-0.17497 -0.33952,0 -0.66741,-0.0811 -0.72864,-0.18015 -0.0612,-0.0991 -0.26896,-0.18015 -0.4616,-0.18015 -0.43443,0 -3.5923,-0.99623 -4.625693,-1.4593 -0.420022,-0.18821 -0.843644,-0.3422 -0.941382,-0.3422 -0.30439,0 -4.405634,-2.2023 -5.681113,-3.05066 -0.396331,-0.26362 -0.842203,-0.52846 -0.990827,-0.58854 -0.366445,-0.14813 -3.307641,-2.36546 -4.61176,-3.47675 -1.52743,-1.30158 -3.60514,-3.38578 -5.028488,-5.04421 -0.680302,-0.79267 -1.302652,-1.46823 -1.382999,-1.50126 -0.08035,-0.033 -0.146085,-0.14089 -0.146085,-0.23969 0,-0.0988 -0.271243,-0.59873 -0.602761,-1.11093 -0.975141,-1.50662 -1.293019,-2.07983 -2.364666,-4.26407 -0.559046,-1.13945 -1.092889,-2.2125 -1.186317,-2.38455 -0.09343,-0.17205 -0.169868,-0.42625 -0.169868,-0.5649 0,-0.13864 -0.121102,-0.48428 -0.269116,-0.76808 -0.148014,-0.2838 -0.269615,-0.65787 -0.270226,-0.83127 -6.1e-4,-0.17339 -0.08218,-0.31526 -0.18126,-0.31526 -0.09908,0 -0.180151,-0.26753 -0.180151,-0.5945 0,-0.32697 -0.06604,-0.67151 -0.146756,-0.76564 -0.261993,-0.30553 -0.75978,-2.65099 -0.934823,-4.40468 -0.09395,-0.94129 -0.244883,-2.31944 -0.335398,-3.06256 -0.09051,-0.74312 -0.139857,-1.37804 -0.10965,-1.41094 0.03021,-0.0329 0.568457,0.0315 1.196113,0.1432 1.664961,0.29618 1.857916,0.3225 3.933524,0.53651 1.04037,0.10726 2.589844,0.27514 3.443278,0.37306 0.853433,0.0979 1.86678,0.17913 2.251881,0.18048 1.445239,0.005 1.637354,0.18965 1.778805,1.70897 0.0673,0.7229 0.540186,2.42964 0.835378,3.01508 0.08675,0.17205 0.157732,0.39725 0.157732,0.50045 0,0.10319 0.405339,1.03431 0.900753,2.06914 0.495414,1.03483 0.900752,1.92773 0.900752,1.98422 0,0.0565 0.07877,0.20063 0.175038,0.3203 0.09627,0.11967 0.708349,1.01327 1.360175,1.98577 1.555176,2.32026 2.821399,3.72941 5.12909,5.70806 2.078684,1.7823 5.23062,3.58301 7.74774,4.4263 0.54495,0.18258 1.07189,0.38713 1.17098,0.45457 0.0991,0.0674 0.54183,0.18233 0.9839,0.25533 0.44206,0.073 0.92847,0.19784 1.0809,0.27745 0.26117,0.13639 1.07715,0.28493 4.06031,0.73916 1.63474,0.24891 6.6334,0.0673 8.28693,-0.30112 0.69358,-0.15453 1.38265,-0.30347 1.53128,-0.331 0.99136,-0.18357 2.749201,-0.78756 4.053381,-1.39272 1.05549,-0.48977 3.40083,-1.78772 3.50945,-1.9422 0.0515,-0.0732 0.38485,-0.30993 0.74087,-0.52611 1.54848,-0.94028 3.97078,-3.1267 5.63081,-5.08252 1.67219,-1.97014 3.54009,-4.87221 3.54009,-5.50007 0,-0.14561 0.0613,-0.26475 0.13628,-0.26475 0.16159,0 0.58432,-1.28714 0.58432,-1.77913 0,-0.40877 -0.21061,-0.46841 -2.61218,-0.73973 -0.99083,-0.11194 -2.20685,-0.27898 -2.70226,-0.37121 -0.49542,-0.0922 -2.56264,-0.3331 -4.59384,-0.53529 -2.0312,-0.20219 -4.34163,-0.44404 -5.13429,-0.53745 -0.79266,-0.0934 -1.968141,-0.21695 -2.612181,-0.27454 -0.64404,-0.0576 -2.54913,-0.26554 -4.23354,-0.46211 -1.68441,-0.19657 -3.87323,-0.43393 -4.86406,-0.52748 -2.51071,-0.23704 -6.5242,-0.66646 -7.38617,-0.79027 -1.3357,-0.19185 -5.38618,-0.65406 -8.016701,-0.91481 -2.947598,-0.29217 -5.436085,-0.63979 -8.467074,-1.18277 -3.518388,-0.63029 -3.758416,-0.71213 -4.451465,-1.5179 -0.827355,-0.96192 -2.008872,-3.20792 -2.149206,-4.08552 -0.06172,-0.386 -0.182644,-0.74533 -0.268712,-0.79853 -0.08607,-0.0532 -0.156487,-0.31892 -0.156487,-0.5905 0,-0.27158 -0.07192,-0.5708 -0.159831,-0.66493 -0.347707,-0.37232 -0.757059,-2.69541 -0.861248,-4.88764 -0.171226,-3.60277 0.335048,-6.96041 1.502669,-9.96577 0.882465,-2.27139 2.935281,-6.2249 3.788498,-7.29626 0.07898,-0.0992 0.383294,-0.50451 0.676254,-0.90075 2.081165,-2.81488 4.911064,-5.60984 7.664194,-7.56958 0.544955,-0.38791 1.031361,-0.75143 1.080903,-0.80782 0.190756,-0.21712 3.200755,-2.01413 4.864063,-2.90391 1.814613,-0.97072 4.992133,-2.12993 7.630903,-2.78388 3.45497,-0.856216 3.69158,-0.881186 8.31242,-0.877446 2.66065,0.002 4.94611,0.0892 5.58466,0.21271 0.5945,0.114986 1.486241,0.287566 1.981661,0.383516 0.49541,0.096 1.67089,0.38207 2.61218,0.63583 4.35702,1.17457 10.444,4.09259 13.06091,6.26124 0.19817,0.16422 0.96831,0.78701 1.71143,1.38398 3.28058,2.63539 6.96253,6.84122 8.65169,9.88269 0.26475,0.47671 0.88735,1.59635 1.38354,2.4881 0.49619,0.89174 0.96545,1.82402 1.04279,2.07173 0.0773,0.24771 0.37705,0.96851 0.66602,1.60178 0.28896,0.63327 0.57301,1.40342 0.63122,1.71143 0.0582,0.30802 0.16089,0.64109 0.22818,0.74018 0.25769,0.37942 0.95071,3.3678 1.15867,4.99632 0.0977,0.76542 -0.0385,0.8623 -2.22943,1.58588 -1.5195,0.50182 -6.50856,2.37098 -7.63926,2.86206 -1.25037,0.54305 -1.45962,0.42347 -1.46952,-0.83983 -0.004,-0.57096 -0.0974,-1.40292 -0.20643,-1.84879 -0.31586,-1.29132 -1.48241,-4.41853 -2.01606,-5.40451 -0.0804,-0.14863 -0.43137,-0.79717 -0.77985,-1.44121 -1.06242,-1.96352 -1.36174,-2.46797 -1.92905,-3.25112 -1.46253,-2.01897 -3.86271,-4.52526 -5.87226,-6.13187 -2.05662,-1.64424 -3.00817,-2.32679 -3.2438,-2.32679 -0.12225,0 -0.32948,-0.12919 -0.46052,-0.28709 -0.29474,-0.35513 -3.17997,-1.73196 -4.3997,-2.09952 -1.8002,-0.54249 -2.368991,-0.66791 -3.856841,-0.85042 -3.79516,-0.46555 -8.16596,-0.016 -11.45595,1.1782 -1.17217,0.42548 -4.45577,1.96628 -4.86407,2.28241 -0.0991,0.0767 -0.81702,0.59658 -1.59542,1.15526 -1.39617,1.00206 -1.85206,1.41947 -3.633412,3.32671 -1.491626,1.59703 -2.126091,2.49034 -3.503265,4.9325 -0.167623,0.29725 -0.44861,0.94579 -0.624416,1.4412 -0.175805,0.49542 -0.391503,1.06289 -0.479328,1.26106 -0.406441,0.91708 -0.664878,2.34351 -0.459558,2.5365 0.233577,0.21956 3.07411,0.59228 11.646529,1.52823 0.94129,0.10277 2.60318,0.30533 3.69309,0.45013 1.08991,0.1448 3.19767,0.38401 4.68391,0.53157 3.82166,0.37943 10.462021,1.15291 11.529631,1.34299 1.40644,0.2504 3.91804,0.54671 4.60319,0.54307 0.67572,-0.004 5.01351,0.6272 6.25347,0.90938 0.42252,0.0961 1.01387,0.17483 1.3141,0.17483 0.63677,0 2.81946,0.48845 3.27471,0.73283 0.17205,0.0924 0.46549,0.16792 0.6521,0.16792 0.49121,0 2.95622,1.32717 4.55922,2.4547 1.49051,1.0484 3.58857,3.18564 3.9674,4.04149 0.12896,0.29132 0.29574,0.52968 0.37064,0.52968 0.0749,0 0.13617,0.10914 0.13617,0.24254 0,0.13341 0.13051,0.50417 0.29002,0.82392 0.96902,1.94244 1.3018,5.26997 0.86624,8.66166 -0.11417,0.88897 -0.76589,2.95559 -1.33426,4.23093 -0.19935,0.44731 -0.53203,1.19836 -0.73929,1.669 -0.70946,1.611 -2.55858,4.43113 -4.18884,6.38848 -1.71597,2.06026 -2.87866,3.24262 -4.9823,5.06661 -1.04037,0.90206 -2.04994,1.78552 -2.24348,1.96324 -0.71943,0.66059 -5.46547,3.74258 -6.94419,4.50942 -1.65083,0.8561 -3.70516,1.73618 -5.13927,2.20168 -0.49268,0.15992 -1.05791,0.36164 -1.25608,0.44827 -0.19816,0.0866 -0.56297,0.19686 -0.81067,0.24496 -0.24771,0.0481 -1.26106,0.26636 -2.251891,0.48503 -0.99082,0.21867 -2.49058,0.4694 -3.33278,0.55719 -2.31181,0.24098 -8.39008,0.32474 -9.8182,0.13529 z"
         id="path1"
         sodipodi:nodetypes="ssscssssssssssssssssssssscsscssssssssscsssscsssssssssssssssssssssssssssssscscssssscssscsscccsssssssssssssssssssccscsssssssssssssssssss" /><path
         style="fill:#003049;fill-opacity:1"
         d="m 80.767022,175.25816 c -0.69358,-0.092 -1.60676,-0.24602 -2.02928,-0.34225 -0.42253,-0.0962 -1.04602,-0.17497 -1.38554,-0.17497 -0.33952,0 -0.66741,-0.0811 -0.72864,-0.18015 -0.0612,-0.0991 -0.26896,-0.18015 -0.4616,-0.18015 -0.43443,0 -3.5923,-0.99623 -4.625693,-1.4593 -0.420022,-0.18821 -0.843644,-0.3422 -0.941382,-0.3422 -0.30439,0 -4.405634,-2.2023 -5.681113,-3.05066 -0.396331,-0.26362 -0.842203,-0.52846 -0.990827,-0.58854 -0.366445,-0.14813 -3.307641,-2.36546 -4.61176,-3.47675 -1.52743,-1.30158 -3.60514,-3.38578 -5.028488,-5.04421 -0.680302,-0.79267 -1.302652,-1.46823 -1.382999,-1.50126 -0.08035,-0.033 -0.146085,-0.14089 -0.146085,-0.23969 0,-0.0988 -0.271243,-0.59873 -0.602761,-1.11093 -0.975141,-1.50662 -1.293019,-2.07983 -2.364666,-4.26407 -0.559046,-1.13945 -1.092889,-2.2125 -1.186317,-2.38455 -0.09343,-0.17205 -0.169868,-0.42625 -0.169868,-0.5649 0,-0.13864 -0.121102,-0.48428 -0.269116,-0.76808 -0.148014,-0.2838 -0.269615,-0.65787 -0.270226,-0.83127 -6.1e-4,-0.17339 -0.08218,-0.31526 -0.18126,-0.31526 -0.09908,0 -0.180151,-0.26753 -0.180151,-0.5945 0,-0.32697 -0.06604,-0.67151 -0.146756,-0.76564 -0.261993,-0.30553 -0.75978,-2.65099 -0.934823,-4.40468 -0.09395,-0.94129 -0.244883,-2.31944 -0.335398,-3.06256 -0.09051,-0.74312 -0.139857,-1.37804 -0.10965,-1.41094 0.03021,-0.0329 0.568457,0.0315 1.196113,0.1432 1.664961,0.29618 1.857916,0.3225 3.933524,0.53651 1.04037,0.10726 2.589844,0.27514 3.443278,0.37306 0.853433,0.0979 1.86678,0.17913 2.251881,0.18048 1.445239,0.005 1.637354,0.18965 1.778805,1.70897 0.0673,0.7229 0.540186,2.42964 0.835378,3.01508 0.08675,0.17205 0.157732,0.39725 0.157732,0.50045 0,0.10319 0.405339,1.03431 0.900753,2.06914 0.495414,1.03483 0.900752,1.92773 0.900752,1.98422 0,0.0565 0.07877,0.20063 0.175038,0.3203 0.09627,0.11967 0.708349,1.01327 1.360175,1.98577 1.555176,2.32026 2.821399,3.72941 5.12909,5.70806 2.078684,1.7823 5.23062,3.58301 7.74774,4.4263 0.54495,0.18258 1.07189,0.38713 1.17098,0.45457 0.0991,0.0674 0.54183,0.18233 0.9839,0.25533 0.44206,0.073 0.92847,0.19784 1.0809,0.27745 0.26117,0.13639 1.07715,0.28493 4.06031,0.73916 1.63474,0.24891 6.6334,0.0673 8.28693,-0.30112 0.69358,-0.15453 1.38265,-0.30347 1.53128,-0.331 0.99136,-0.18357 2.749201,-0.78756 4.053381,-1.39272 1.055486,-0.48977 3.400827,-1.78772 3.509447,-1.9422 0.0515,-0.0732 0.38485,-0.30993 0.74087,-0.52611 1.54848,-0.94028 3.97078,-3.1267 5.63081,-5.08252 1.67219,-1.97014 3.54009,-4.87221 3.54009,-5.50007 0,-0.14561 0.0613,-0.26475 0.13628,-0.26475 0.16159,0 0.58432,-1.28714 0.58432,-1.77913 0,-0.40877 -0.21061,-0.46841 -2.61218,-0.73973 -0.99083,-0.11194 -2.20685,-0.27898 -2.70226,-0.37121 -0.49542,-0.0922 -2.56264,-0.3331 -4.59384,-0.53529 -2.031201,-0.20219 -4.341627,-0.44404 -5.134287,-0.53745 -0.79266,-0.0934 -1.968141,-0.21695 -2.612181,-0.27454 -0.64404,-0.0576 -2.54913,-0.26554 -4.23354,-0.46211 -1.68441,-0.19657 -3.87323,-0.43393 -4.86406,-0.52748 -2.51071,-0.23704 -6.5242,-0.66646 -7.38617,-0.79027 -1.3357,-0.19185 -5.38618,-0.65406 -8.016701,-0.91481 -2.947598,-0.29217 -5.436085,-0.63979 -8.467074,-1.18277 -3.518388,-0.63029 -3.758416,-0.71213 -4.451465,-1.5179 -0.827355,-0.96192 -2.008872,-3.20792 -2.149206,-4.08552 -0.06172,-0.386 -0.182644,-0.74533 -0.268712,-0.79853 -0.08607,-0.0532 -0.156487,-0.31892 -0.156487,-0.5905 0,-0.27158 -0.07192,-0.5708 -0.159831,-0.66493 -0.347707,-0.37232 -0.757059,-2.69541 -0.861248,-4.88764 -0.171226,-3.60277 0.335048,-6.96041 1.502669,-9.96577 0.882465,-2.27139 2.935281,-6.2249 3.788498,-7.29626 0.07898,-0.0992 0.383294,-0.50451 0.676254,-0.90075 2.081165,-2.81488 4.911064,-5.60984 7.664194,-7.56958 0.544955,-0.38791 1.031361,-0.75143 1.080903,-0.80782 0.190756,-0.21712 3.200755,-2.014131 4.864063,-2.903901 1.814613,-0.97073 4.992133,-2.129935 7.630903,-2.783885 3.45497,-0.85622 3.69158,-0.88119 8.31242,-0.87745 2.66065,0.002 4.94611,0.0892 5.58466,0.21271 0.5945,0.11499 1.486241,0.28757 1.981661,0.38352 0.49541,0.096 1.67089,0.38207 2.612176,0.63583 4.357021,1.174565 10.444001,4.092585 13.060911,6.261236 0.19817,0.16422 0.96831,0.78701 1.71143,1.38398 3.28058,2.63539 6.96253,6.84122 8.65169,9.88269 0.26475,0.47671 0.88735,1.59635 1.38354,2.4881 0.49619,0.89174 0.96545,1.82402 1.04279,2.07173 0.0773,0.24771 0.37705,0.96851 0.66602,1.60178 0.28896,0.63327 0.57301,1.40342 0.63122,1.71143 0.0582,0.30802 0.16089,0.64109 0.22818,0.74018 0.25769,0.37942 0.95071,3.3678 1.15867,4.99632 0.0977,0.76542 -0.0385,0.8623 -2.22943,1.58588 -1.5195,0.50182 -6.50856,2.37098 -7.63926,2.86206 -1.25037,0.54305 -1.45962,0.42347 -1.46952,-0.83983 -0.004,-0.57096 -0.0974,-1.40292 -0.20643,-1.84879 -0.31586,-1.29132 -1.48241,-4.41853 -2.01606,-5.40451 -0.0804,-0.14863 -0.43137,-0.79717 -0.77985,-1.44121 -1.06242,-1.96352 -1.36174,-2.46797 -1.92905,-3.25112 -1.46253,-2.01897 -3.86271,-4.52526 -5.87226,-6.13187 -2.05662,-1.64424 -3.00817,-2.32679 -3.2438,-2.32679 -0.12225,0 -0.32948,-0.12919 -0.46052,-0.28709 -0.29474,-0.35513 -3.179971,-1.73196 -4.399697,-2.09952 -1.8002,-0.54249 -2.368991,-0.66791 -3.856841,-0.85042 -3.79516,-0.46555 -8.16596,-0.016 -11.45595,1.1782 -1.17217,0.42548 -4.45577,1.96628 -4.86407,2.28241 -0.0991,0.0767 -0.81702,0.59658 -1.59542,1.15526 -1.39617,1.00206 -1.85206,1.41947 -3.633412,3.32671 -1.491626,1.59703 -2.126091,2.49034 -3.503265,4.9325 -0.167623,0.29725 -0.44861,0.94579 -0.624416,1.4412 -0.175805,0.49542 -0.391503,1.06289 -0.479328,1.26106 -0.406441,0.91708 -0.664878,2.34351 -0.459558,2.5365 0.233577,0.21956 3.07411,0.59228 11.646529,1.52823 0.94129,0.10277 2.60318,0.30533 3.69309,0.45013 1.08991,0.1448 3.19767,0.38401 4.68391,0.53157 3.82166,0.37943 10.462021,1.15291 11.529631,1.34299 1.406436,0.2504 3.918037,0.54671 4.603187,0.54307 0.67572,-0.004 5.01351,0.6272 6.25347,0.90938 0.42252,0.0961 1.01387,0.17483 1.3141,0.17483 0.63677,0 2.81946,0.48845 3.27471,0.73283 0.17205,0.0924 0.46549,0.16792 0.6521,0.16792 0.49121,0 2.95622,1.32717 4.55922,2.4547 1.49051,1.0484 3.58857,3.18564 3.9674,4.04149 0.12896,0.29132 0.29574,0.52968 0.37064,0.52968 0.0749,0 0.13617,0.10914 0.13617,0.24254 0,0.13341 0.13051,0.50417 0.29002,0.82392 0.96902,1.94244 1.3018,5.26997 0.86624,8.66166 -0.11417,0.88897 -0.76589,2.95559 -1.33426,4.23093 -0.19935,0.44731 -0.53203,1.19836 -0.73929,1.669 -0.70946,1.611 -2.55858,4.43113 -4.18884,6.38848 -1.71597,2.06026 -2.87866,3.24262 -4.9823,5.06661 -1.04037,0.90206 -2.04994,1.78552 -2.24348,1.96324 -0.71943,0.66059 -5.46547,3.74258 -6.94419,4.50942 -1.65083,0.8561 -3.705161,1.73618 -5.139271,2.20168 -0.49268,0.15992 -1.057906,0.36164 -1.256076,0.44827 -0.19816,0.0866 -0.56297,0.19686 -0.81067,0.24496 -0.24771,0.0481 -1.26106,0.26636 -2.251891,0.48503 -0.99082,0.21867 -2.49058,0.4694 -3.33278,0.55719 -2.31181,0.24098 -8.39008,0.32474 -9.8182,0.13529 z"
         id="path4"
         sodipodi:nodetypes="ssscssssssssssssssssssssscsscssssssssscsssscsssssssssssssssssssssssssssssscscssssscssscsscccsssssssssssssssssssccscsssssssssssssssssss" /></g></g></svg>
